<svg xmlns="http://www.w3.org/2000/svg" xmlns:xlink="http://www.w3.org/1999/xlink" width="1920" zoomAndPan="magnify" viewBox="0 0 1440 1439.999935" height="1920" preserveAspectRatio="xMidYMid meet" version="1.0"><defs><g/><clipPath id="4c12af5635"><path d="M 190 147.0625 L 1289 147.0625 L 1289 719 L 190 719 Z M 190 147.0625 " clip-rule="nonzero"/></clipPath><clipPath id="64d78fbeb0"><path d="M 519 1156 L 1087 1156 L 1087 1292.933594 L 519 1292.933594 Z M 519 1156 " clip-rule="nonzero"/></clipPath><clipPath id="410d0212ea"><path d="M 291.058594 917.101562 L 353.308594 917.101562 L 353.308594 976.351562 L 291.058594 976.351562 Z M 291.058594 917.101562 " clip-rule="nonzero"/></clipPath><clipPath id="c9726b3083"><path d="M 1118.601562 917.101562 L 1180.851562 917.101562 L 1180.851562 976.351562 L 1118.601562 976.351562 Z M 1118.601562 917.101562 " clip-rule="nonzero"/></clipPath><clipPath id="19735ef38b"><path d="M 443.363281 432 L 1019.363281 432 L 1019.363281 1008 L 443.363281 1008 Z M 443.363281 432 " clip-rule="nonzero"/></clipPath></defs><g clip-path="url(#4c12af5635)"><path fill="#000000" d="M 1005.832031 216.570312 L 970.773438 199.609375 C 958.085938 193 948.386719 190.636719 939.910156 188.757812 C 933.066406 187.289062 928.621094 185.660156 918.992188 181.457031 C 910.507812 177.570312 902.84375 174.066406 891.234375 171.722656 C 877.859375 168.644531 866.855469 165.640625 857.722656 162.042969 C 844.71875 156.917969 825.035156 154.613281 805.519531 151.394531 C 802.152344 150.890625 797.054688 150.519531 795.707031 150.667969 C 791.546875 151.253906 789.808594 152.480469 785.335938 153.21875 C 778.5625 154.40625 760.339844 153.914062 746.769531 152.378906 C 733.011719 150.410156 724.871094 150.546875 722.84375 148.652344 C 721.292969 147.386719 712.796875 147.191406 700.632812 147.722656 C 689.125 148.4375 678.714844 148.667969 672.882812 150.984375 C 667.757812 152.9375 664.066406 154.34375 659.367188 156.117188 C 656.960938 157.011719 644.914062 158.769531 642.671875 158.535156 C 638.578125 158.109375 635.824219 157.410156 631.25 157.09375 C 630.058594 157.011719 622.347656 157.921875 620.925781 158.285156 C 610.125 162.191406 600.421875 165.695312 589.613281 169.601562 C 583.53125 171.769531 576.351562 174.148438 568.863281 176.425781 C 561.039062 179.292969 552.816406 182.257812 546.101562 183.960938 C 539.523438 185.6875 534.753906 186.582031 536.464844 184.90625 C 538.40625 183.019531 547.578125 179.664062 555.441406 176.613281 C 560.472656 174.667969 561.875 173.757812 559.179688 174.261719 C 558.175781 174.445312 555.90625 175.078125 554.222656 175.683594 L 523.824219 186.8125 C 519.917969 188.300781 515.171875 190.105469 512.558594 191.484375 C 497.050781 200.761719 482.226562 207.644531 465.871094 213.789062 C 461.640625 215.167969 455.175781 219.511719 449.613281 222.605469 C 435.929688 230.640625 423.800781 238.238281 415.410156 245.222656 C 411.449219 248.886719 407.046875 252.929688 402.097656 257.503906 C 400.164062 259.199219 395.375 262.65625 392.425781 264.664062 C 389.347656 266.757812 386.808594 268.164062 384.191406 269.714844 C 367.21875 279.535156 367.757812 280.324219 350.484375 297.210938 C 346.308594 301.425781 342.335938 305.433594 338.101562 309.691406 C 327.003906 320.691406 318.269531 331.507812 309.351562 338.714844 C 306.199219 341.402344 303.070312 343.996094 299.304688 347.605469 C 297.464844 349.472656 292.933594 354.121094 291.816406 356.335938 C 287.574219 363.394531 284.152344 369.085938 279.863281 376.234375 C 273.410156 386.9375 262.367188 400.3125 255.847656 409.9375 C 252.925781 413.554688 250.804688 416.183594 248.183594 419.429688 C 245.402344 422.917969 241.402344 428.691406 238.9375 433.535156 C 229.496094 450.347656 222.628906 469.171875 211.90625 489.042969 C 206.054688 499.894531 202.472656 513.117188 197.90625 525.085938 C 193.160156 538.699219 189.851562 551.300781 191.023438 554.75 C 192.289062 560.757812 197.421875 550.796875 208.175781 525.328125 C 212.136719 515.90625 215.503906 506.238281 219.933594 496.796875 C 221.1875 494.289062 223.105469 489.246094 223.226562 488.214844 C 223.355469 487.164062 222.023438 488.484375 220.667969 490.761719 C 216.175781 497.625 212.398438 507.027344 209.171875 513.527344 C 207.691406 516.492188 206.621094 516.566406 206.890625 514.335938 C 207.160156 512.066406 208.964844 505.457031 210.742188 500.519531 C 219.800781 479.6875 229.726562 461.441406 236.65625 452.253906 C 243.113281 444.3125 251.605469 434.671875 261.429688 421.066406 C 266.339844 414.949219 269.632812 410.027344 276.941406 399.667969 C 281.566406 392.769531 280.683594 392.164062 281.222656 389.980469 C 281.890625 387.253906 282.8125 384.207031 284.058594 380.753906 C 285.007812 378.125 293.390625 366.507812 296.878906 362.9375 C 303.527344 356.167969 311.023438 350.652344 318.253906 344.210938 C 320.214844 342.351562 323.3125 339.410156 325.890625 336.964844 C 335.675781 327.425781 342.027344 320.421875 347.992188 313.542969 C 351.050781 309.71875 353.554688 306.585938 356.976562 302.308594 C 362.445312 296.402344 374.121094 283.980469 383.207031 278.503906 C 387.96875 275.386719 392.808594 272.234375 396.964844 269.519531 C 405.066406 264.488281 413.011719 259.152344 420.832031 253.421875 C 429.054688 248.261719 437.324219 242.972656 445.445312 237.027344 C 457.539062 227.90625 471.5 219.566406 487.488281 213.324219 C 496.734375 209.195312 506.167969 204.976562 515.757812 200.699219 C 525.617188 197.089844 535.625 193.417969 545.738281 189.707031 C 563.632812 182.378906 582.265625 177.550781 600.824219 173.226562 C 619.167969 167.992188 637.898438 165.78125 656.242188 163.800781 C 666.671875 162.886719 676.921875 160.300781 687.097656 159.800781 C 694.929688 159.039062 702.640625 158.304688 710.613281 157.53125 C 723.226562 156.554688 735.988281 155.402344 748.015625 157.066406 C 755.734375 157.921875 762.972656 158.730469 770.0625 159.523438 C 781.695312 160.617188 793.714844 161.753906 805.984375 162.914062 C 819.84375 164.179688 833.265625 166.171875 848.457031 168.988281 C 860.066406 172.011719 872.949219 175.367188 885.21875 178.566406 C 907.664062 183.375 924.695312 192.308594 936.46875 198.328125 C 938.535156 199.332031 941.929688 200.976562 944.804688 202.371094 C 948.460938 203.933594 956.144531 206.84375 960.21875 208.417969 C 964.039062 209.585938 966.832031 210.433594 970.867188 211.671875 C 975.277344 213.175781 981.808594 216.132812 986.679688 218.886719 C 996.207031 224.121094 1004.699219 229.207031 1012.96875 235.550781 C 1030.382812 248.429688 1035.375 250.140625 1054.640625 261.328125 C 1056.027344 262.164062 1057.1875 262.863281 1058.613281 263.707031 C 1065.292969 267.855469 1071.886719 272.691406 1077.394531 277.515625 C 1085.011719 284.230469 1089.976562 289.066406 1100.230469 298.933594 C 1129.5 324.535156 1142.226562 343.355469 1146.625 354.019531 C 1146.832031 354.503906 1148.570312 356.800781 1149.378906 357.636719 C 1151.882812 360.25 1155.582031 364.121094 1156.523438 364.734375 C 1161.507812 367.773438 1165.136719 370.257812 1169.414062 373.464844 C 1171.21875 374.824219 1173.648438 377.089844 1175.863281 379.027344 C 1177.5625 380.523438 1184.578125 389.496094 1186.445312 392.613281 C 1189.628906 397.929688 1192.996094 403.59375 1195.75 408.207031 C 1201.757812 421.328125 1210.378906 437.574219 1220.828125 455.753906 C 1229.078125 474.441406 1238.222656 492.578125 1245.394531 511.695312 C 1253.355469 535.15625 1261.671875 557.863281 1264.824219 579.464844 C 1270.394531 603.207031 1273.921875 629.792969 1277.195312 655.886719 C 1279.269531 674.410156 1279.792969 692.523438 1281.800781 709.753906 C 1282.367188 715.578125 1284.089844 721.230469 1284.609375 718.023438 C 1285.53125 712.292969 1286.832031 707.960938 1287.09375 698.691406 C 1287.605469 677.898438 1289.398438 660.90625 1287.921875 643.015625 C 1287.492188 633.046875 1286.75 622.261719 1285.6875 610.527344 C 1284.359375 598.855469 1281.167969 586.542969 1278.300781 573.023438 C 1262.648438 507.257812 1235.140625 443.894531 1194.996094 386.457031 C 1186.074219 374.671875 1178.402344 361.980469 1168.550781 351.035156 L 1156.207031 336.78125 C 1112.359375 289.011719 1062.976562 247.84375 1005.832031 216.570312 " fill-opacity="1" fill-rule="nonzero"/></g><g clip-path="url(#64d78fbeb0)"><path fill="#000000" d="M 1086.082031 1157.46875 C 1084.59375 1157.246094 1083.976562 1156.539062 1081.886719 1157.011719 C 1080.359375 1157.355469 1077.46875 1158.714844 1074.0625 1160.628906 C 1072.183594 1161.6875 1067.53125 1164.953125 1064.910156 1167.035156 C 1062.453125 1168.980469 1059.207031 1172.019531 1059.414062 1172.253906 C 1060.472656 1173.445312 1063.261719 1173.339844 1064.101562 1174.699219 C 1064.984375 1176.101562 1053.347656 1187.800781 1037.421875 1196.71875 L 1009.917969 1213.039062 C 1001.378906 1218.097656 996.390625 1218.886719 993.84375 1218.570312 C 992.773438 1218.367188 991.414062 1218.3125 989.75 1218.414062 C 989.582031 1218.488281 985.371094 1220.476562 984.90625 1220.691406 C 978.199219 1225.414062 971.910156 1229.851562 965.203125 1234.585938 C 961.121094 1237.53125 954.671875 1241.214844 946.285156 1244.058594 C 930.183594 1249.777344 913.664062 1257.015625 897.960938 1260.9375 C 876.242188 1265.375 857.058594 1272.460938 836.550781 1275.695312 C 817.703125 1278.691406 799.136719 1283.375 780.488281 1282.652344 C 764.898438 1282.707031 751.660156 1283.675781 739.691406 1285.542969 C 733.738281 1286.59375 727.300781 1286.445312 719.914062 1286.667969 C 714.722656 1286.714844 707.597656 1286.351562 701.355469 1286.027344 C 697.265625 1285.683594 692.78125 1285.300781 689.179688 1284.996094 C 665.832031 1281.917969 641.359375 1277.25 615.371094 1273.0625 C 600.542969 1269.679688 586.5 1265.585938 572.386719 1261.535156 C 562.472656 1258.660156 552.742188 1254.167969 542.769531 1250.699219 C 534.214844 1247.527344 527.441406 1245.707031 523.359375 1245.140625 C 514.066406 1243.828125 520.539062 1249 537.347656 1255.84375 C 547.867188 1259.960938 558.089844 1264.582031 569.046875 1267.941406 C 580.109375 1270.960938 591.558594 1273.84375 603.847656 1276.523438 C 616.839844 1279.863281 630.523438 1281.769531 644.207031 1283.757812 C 657.878906 1285.597656 671.394531 1289.003906 684.6875 1290.371094 C 698.761719 1291.933594 714.007812 1292.648438 728.835938 1292.722656 C 736.898438 1293.121094 745.148438 1291.820312 752.535156 1291.140625 C 771.261719 1288.480469 789.484375 1289.449219 807.78125 1287.085938 C 817.84375 1286.203125 828.105469 1284.558594 838.726562 1282.484375 C 848.761719 1280.914062 858.941406 1278.046875 868.984375 1275.042969 C 883.097656 1270.730469 897.542969 1267.539062 912.21875 1262.890625 C 926.414062 1258.148438 940.683594 1252.941406 954.636719 1247.378906 C 970.710938 1240.097656 985.675781 1232.539062 1000.707031 1226.390625 C 1012.625 1221.9375 1022.761719 1214.265625 1033.375 1207.589844 C 1036.699219 1205.386719 1040.066406 1203.152344 1043.542969 1200.847656 C 1054.230469 1194.523438 1065.90625 1185.496094 1073.179688 1179.125 C 1084.3125 1169.398438 1083.179688 1167.613281 1084.957031 1164.078125 C 1086.5 1160.972656 1085.8125 1159.46875 1086.082031 1157.46875 " fill-opacity="1" fill-rule="nonzero"/></g><path fill="#000000" d="M 417.34375 1185.988281 C 405.105469 1176.800781 393.199219 1168.273438 381.839844 1160.683594 C 371.488281 1154.128906 362.808594 1145.480469 353.449219 1137.492188 C 344.429688 1129.132812 334.902344 1121.089844 327.273438 1110.925781 C 321.050781 1103.28125 313.890625 1095.183594 306.503906 1087.816406 C 292.488281 1074.242188 283.257812 1059.203125 273.78125 1044.800781 C 269.203125 1038.097656 263.789062 1028.851562 259.203125 1020.175781 C 256.320312 1014.921875 249.140625 1004.144531 246.5 1000.964844 C 241.578125 995.050781 237.660156 990.988281 236.769531 992.25 C 235.660156 993.804688 239.195312 1003.457031 251.761719 1022.511719 C 257.390625 1031.046875 263.855469 1040.859375 268.449219 1047.832031 C 276.339844 1061.027344 285.324219 1075.144531 299.425781 1089.707031 C 311.265625 1101.355469 322.550781 1114.3125 333.3125 1126.59375 C 349.796875 1142.652344 365.367188 1159.289062 385.03125 1171.359375 C 398.890625 1180.128906 412.117188 1191.578125 426.015625 1200.355469 C 446.078125 1213.855469 460.933594 1222.671875 477.40625 1228.160156 C 478.90625 1228.726562 480.632812 1229.292969 480.707031 1229.117188 C 480.941406 1228.523438 482.746094 1228.382812 479.917969 1226.644531 C 470.410156 1221.230469 459.890625 1214.441406 449.371094 1206.964844 C 438.636719 1199.925781 427.613281 1192.710938 417.34375 1185.988281 " fill-opacity="1" fill-rule="nonzero"/><path fill="#000000" d="M 1137.195312 1124.390625 C 1152.867188 1107.113281 1169.40625 1090.402344 1183.238281 1071.648438 C 1198.316406 1051.140625 1204.4375 1041.042969 1205.347656 1035.035156 C 1205.488281 1033.773438 1203.664062 1035.15625 1201.394531 1037.238281 C 1198.78125 1039.722656 1194.429688 1045.496094 1191.089844 1050.453125 C 1186.867188 1056.832031 1183.003906 1062.683594 1178.847656 1068.96875 C 1173.519531 1077.605469 1166.226562 1085.242188 1159.191406 1092.199219 C 1151.136719 1100.046875 1143.480469 1107.503906 1135.5 1115.289062 C 1131.519531 1119.015625 1122.164062 1127.757812 1118.980469 1131.542969 C 1113.121094 1138.285156 1110.574219 1142.226562 1111.503906 1143.316406 C 1112.804688 1144.859375 1123.816406 1136.859375 1137.195312 1124.390625 " fill-opacity="1" fill-rule="nonzero"/><path fill="#000000" d="M 209.019531 943.894531 C 209.691406 945.308594 210.628906 947.261719 211.5625 949.214844 C 214.007812 954.347656 217.410156 959.945312 218.59375 960.996094 C 225.8125 966.605469 216.492188 945.652344 207.617188 916.660156 C 203.367188 904.28125 197.886719 892.082031 196.210938 891.699219 C 194.910156 891.414062 193.867188 891.894531 193.132812 893.1875 C 192.351562 894.554688 194.511719 903.5 197.832031 913.015625 C 201.429688 923.074219 204.828125 933.359375 209.019531 943.894531 " fill-opacity="1" fill-rule="nonzero"/><path fill="#000000" d="M 586.5625 252.800781 C 589.867188 250.988281 595.464844 249.546875 597.894531 248.355469 C 601.4375 246.691406 603.539062 245.222656 604.878906 243.984375 C 607.417969 241.640625 600.757812 241.984375 588.246094 245.34375 C 570.445312 252.128906 557.515625 255.988281 546.957031 257.851562 C 544.902344 258.269531 541.894531 258.742188 538.964844 260.117188 C 536.109375 261.308594 532.363281 263.085938 529.3125 264.648438 C 525.496094 266.601562 522.984375 268.972656 524.808594 268.730469 C 526.808594 268.46875 528.066406 268.738281 531.570312 267.511719 C 546.722656 261.382812 561.988281 259.726562 575.597656 256.4375 C 577.410156 256.0625 582.0625 254.316406 586.5625 252.800781 " fill-opacity="1" fill-rule="nonzero"/><path fill="#000000" d="M 174.269531 603.320312 C 173.414062 609.398438 172.203125 618 171.042969 626.296875 C 170.550781 630.175781 170.1875 634.535156 170.175781 636.871094 C 170.121094 651.253906 171.238281 659.484375 174.277344 656.9375 C 174.761719 656.527344 175.601562 653.671875 176.308594 651.609375 C 177.285156 648.734375 179.070312 637.613281 179.023438 634.824219 C 178.976562 632.574219 179.089844 629.484375 178.816406 628.480469 C 177.925781 625.132812 177.765625 618.71875 178.503906 608.109375 C 179.179688 599.730469 180.855469 592.019531 181.878906 584.246094 C 182.726562 578.640625 180.34375 581.761719 178.351562 588.738281 C 177.226562 592.753906 176.09375 596.820312 174.269531 603.320312 " fill-opacity="1" fill-rule="nonzero"/><path fill="#000000" d="M 442.730469 317.921875 C 443.566406 318.757812 445.230469 319.269531 452.792969 314.082031 C 468.039062 303.785156 481.089844 298.941406 491.546875 294.246094 C 494.074219 293.316406 501.601562 288.023438 504.046875 286.464844 C 508.632812 283.199219 508.34375 281.609375 503.3125 283.292969 C 500.800781 284.015625 498.632812 284.84375 495.878906 286.398438 C 478.96875 295.761719 469.660156 299.164062 461.0625 301.945312 C 457.667969 302.792969 451.734375 306.882812 449.121094 309.386719 C 447.183594 311.308594 445.519531 312.957031 443.996094 314.480469 C 443.269531 315.242188 443.054688 315.707031 442.953125 316.050781 C 442.757812 316.769531 442.785156 317.308594 442.730469 317.921875 " fill-opacity="1" fill-rule="nonzero"/><path fill="#000000" d="M 171.105469 756.753906 C 171.609375 753.609375 172.09375 752.605469 172.160156 749.601562 C 172.214844 746.757812 171.878906 741.773438 171.636719 737.820312 C 171.527344 736.015625 171.238281 733.832031 171.003906 732.828125 C 168.128906 722.523438 167.90625 706.761719 167.8125 689.773438 C 167.769531 684.117188 167.070312 682.417969 166.25 685.074219 C 165.796875 686.589844 165.21875 689.761719 164.867188 693.222656 C 164.09375 703.132812 162.726562 713.96875 163.621094 724.644531 C 164.269531 733.105469 165.117188 741.316406 166.175781 744.433594 C 167.90625 749.546875 169.617188 753.144531 171.105469 756.753906 " fill-opacity="1" fill-rule="nonzero"/><path fill="#000000" d="M 1250.824219 956.441406 C 1252.5 952.785156 1254.371094 948.730469 1255.820312 945.5625 C 1260.425781 934.875 1261.550781 926.496094 1262.210938 921.699219 C 1262.609375 917.085938 1259.449219 921.28125 1254.667969 932.550781 C 1253 937.230469 1249.121094 944.242188 1247.558594 948.359375 C 1240.101562 966.679688 1239.441406 973.605469 1245.886719 964.949219 C 1246.957031 963.507812 1249.152344 959.351562 1250.824219 956.441406 " fill-opacity="1" fill-rule="nonzero"/><path fill="#000000" d="M 179.058594 840.761719 C 180.835938 842.304688 179.117188 824.414062 176.558594 808.074219 C 175.636719 802.914062 174.242188 797.742188 173.265625 794.851562 C 171.777344 790.453125 171.050781 791.867188 170.613281 794.925781 C 170.082031 798.671875 171.023438 809.03125 172.984375 820.542969 C 174.578125 831.683594 177.460938 839.847656 179.058594 840.761719 " fill-opacity="1" fill-rule="nonzero"/><path fill="#000000" d="M 226.722656 742.722656 C 226.945312 743.066406 227.308594 744.339844 227.382812 743.605469 C 228.835938 732.195312 228.871094 720.785156 231.726562 708.9375 C 231.902344 708.015625 232.070312 700.921875 231.875 699.890625 C 230.898438 694.523438 229.121094 696.429688 228.015625 703.535156 C 226.082031 713.417969 225.261719 724.375 226.175781 738.007812 C 226.339844 739.476562 226.535156 741.148438 226.722656 742.722656 " fill-opacity="1" fill-rule="nonzero"/><path fill="#000000" d="M 879.226562 240.945312 C 875.792969 240.191406 871.8125 239.324219 869.058594 238.722656 C 862.613281 237.625 859.90625 237.792969 860.15625 238.84375 C 860.632812 240.8125 868.800781 244.292969 877.050781 245.984375 C 887.171875 247.863281 889.394531 248.484375 889.894531 247.148438 C 890.128906 246.550781 888.976562 245.398438 887.050781 244.058594 C 885.953125 243.136719 881.980469 241.835938 879.226562 240.945312 " fill-opacity="1" fill-rule="nonzero"/><path fill="#000000" d="M 257.082031 557.234375 C 255.773438 563.25 254.46875 571.683594 255.699219 575.960938 C 255.996094 577.019531 257.605469 573.339844 259.222656 569.070312 C 261.019531 564.90625 263.289062 557.558594 263.457031 555.632812 C 264.078125 548.511719 262.179688 547.988281 259.855469 548.59375 C 259.324219 548.722656 258.757812 550.089844 257.082031 557.234375 " fill-opacity="1" fill-rule="nonzero"/><path fill="#000000" d="M 388.136719 369.941406 C 390.695312 367.140625 393.933594 363.941406 394.238281 363.207031 C 395.996094 359.199219 391.96875 360.410156 382.640625 367.363281 C 380.257812 369.457031 374.324219 376.449219 373.292969 378.355469 C 370.269531 383.972656 371.28125 385.105469 378.539062 379.070312 C 381.058594 377.027344 384.992188 372.75 388.136719 369.941406 " fill-opacity="1" fill-rule="nonzero"/><path fill="#000000" d="M 316.792969 455.742188 C 318.167969 454.394531 320.121094 452.730469 322.613281 449.976562 C 324.96875 446.925781 330.902344 438.234375 332.6875 434.894531 C 334.363281 431.332031 334.207031 430.171875 332.78125 430.578125 C 330.511719 431.285156 324.941406 436.449219 321.730469 441.804688 C 317.15625 450.292969 316.585938 453.195312 316.792969 455.742188 " fill-opacity="1" fill-rule="nonzero"/><path fill="#000000" d="M 259.941406 887.152344 C 261.242188 890.183594 262.839844 894.324219 263.78125 896.007812 C 265.929688 899.847656 267.929688 903.0625 269.632812 905.40625 C 271.484375 907.925781 270.859375 903.222656 268.738281 896.730469 C 266.554688 890.0625 263.222656 882.355469 261.4375 879.75 C 259.039062 876.265625 257.445312 875.128906 257.753906 879.082031 C 257.847656 880.289062 259.175781 884.375 259.941406 887.152344 " fill-opacity="1" fill-rule="nonzero"/><path fill="#000000" d="M 778.65625 1265.855469 C 777.214844 1264.714844 774.992188 1263.96875 767.679688 1263.773438 C 766.164062 1263.726562 763.34375 1263.753906 762.171875 1263.886719 C 759.074219 1264.25 754.5625 1264.75 754.136719 1265.085938 C 752.21875 1266.554688 755.101562 1267.753906 761.671875 1268.609375 C 763.101562 1268.804688 768.75 1268.542969 772.507812 1268.378906 C 773.734375 1268.320312 775.929688 1267.902344 776.300781 1267.6875 C 777.546875 1266.964844 778.164062 1266.265625 778.65625 1265.855469 " fill-opacity="1" fill-rule="nonzero"/><path fill="#000000" d="M 384.0625 1130.464844 C 381.515625 1128.242188 379.710938 1126.679688 378.640625 1125.738281 C 372.964844 1121.386719 371.050781 1120.839844 369.765625 1120.914062 C 368.371094 1120.976562 372.808594 1126.027344 379.765625 1132.230469 C 394.359375 1145.601562 396.285156 1143.890625 390.789062 1138.515625 C 388.835938 1136.171875 386.148438 1132.957031 384.0625 1130.464844 " fill-opacity="1" fill-rule="nonzero"/><path fill="#000000" d="M 285.621094 522.332031 C 286.460938 519.925781 288.085938 515.953125 287.976562 515.40625 C 287.6875 514.027344 286.914062 513.554688 285.714844 514.066406 C 285.242188 514.269531 283.195312 517.703125 281.707031 520.296875 C 279.390625 523.839844 277.316406 530.960938 277.410156 532.757812 C 277.445312 535.910156 278.21875 537.035156 281.363281 531.101562 C 282.152344 529.296875 283.964844 525.226562 285.621094 522.332031 " fill-opacity="1" fill-rule="nonzero"/><path fill="#000000" d="M 683.683594 229.292969 C 691.871094 228.242188 697.292969 226.996094 694.398438 225.972656 C 692.277344 225.285156 684.195312 225.015625 676.835938 226.753906 C 669.65625 228.121094 666.066406 229.554688 668.363281 230.148438 C 670.820312 230.78125 677.703125 230.398438 683.683594 229.292969 " fill-opacity="1" fill-rule="nonzero"/><path fill="#000000" d="M 244.246094 658.640625 C 244.453125 655.746094 244.972656 651.171875 244.785156 650.242188 C 243.976562 646.308594 242.378906 648.484375 239.941406 657.753906 C 238.9375 661.335938 237.960938 670.382812 238.796875 671.84375 C 240.257812 675.21875 240.925781 673.480469 243.28125 663.894531 C 243.511719 662.636719 243.921875 660.414062 244.246094 658.640625 " fill-opacity="1" fill-rule="nonzero"/><path fill="#000000" d="M 1283.882812 843.179688 C 1281.296875 853.964844 1281.140625 859.964844 1283.613281 854.746094 C 1284.953125 851.929688 1287.605469 842.742188 1288.078125 838.84375 C 1288.488281 835.144531 1288.628906 832.410156 1288.050781 831.5 C 1287.6875 830.496094 1285.289062 837.292969 1283.882812 843.179688 " fill-opacity="1" fill-rule="nonzero"/><path fill="#000000" d="M 197.113281 865.636719 C 198.277344 863.386719 198.027344 857.050781 194.492188 841.199219 C 194.222656 840 193.21875 836.957031 193.003906 836.726562 C 190.78125 834.242188 191.179688 841.726562 194.128906 856.550781 C 194.40625 857.992188 195.191406 860.699219 195.691406 862.230469 C 196.195312 863.738281 196.632812 864.5 197.113281 865.636719 " fill-opacity="1" fill-rule="nonzero"/><path fill="#000000" d="M 179.90625 709.894531 C 180.445312 708.917969 181.132812 708.101562 181.851562 706.257812 C 182.632812 704.230469 183.542969 695.128906 183.347656 691.539062 C 183.191406 688.832031 182.890625 685.429688 182.539062 685.847656 C 181.636719 686.90625 180.660156 689.277344 179.71875 692.644531 C 179.449219 693.601562 179.132812 699.730469 178.949219 703.496094 C 178.882812 704.863281 179.078125 706.539062 179.21875 707.523438 C 179.359375 708.507812 179.570312 708.808594 179.90625 709.894531 " fill-opacity="1" fill-rule="nonzero"/><path fill="#000000" d="M 243.402344 467.777344 C 244.664062 466.585938 245.410156 466.046875 246.46875 464.800781 C 246.925781 464.25 248.292969 462 248.777344 460.921875 C 250.265625 457.75 252.617188 452.777344 252.890625 452.199219 C 253.175781 450.078125 252.871094 448.851562 251.96875 448.65625 C 251.96875 448.65625 248.460938 453.101562 246.890625 456.105469 C 246.292969 457.203125 245.011719 460.253906 244.824219 460.988281 C 244.238281 463.769531 243.792969 465.925781 243.402344 467.777344 " fill-opacity="1" fill-rule="nonzero"/><path fill="#000000" d="M 965.707031 1212.0625 C 966.515625 1212.175781 967.464844 1212.433594 969.015625 1212.398438 C 969.4375 1212.386719 971.902344 1211.476562 973.007812 1210.917969 C 976.1875 1209.308594 980.886719 1206.964844 981.917969 1206.167969 C 987.070312 1202.214844 983.210938 1202.71875 975.40625 1205.273438 C 974.597656 1205.535156 971.871094 1206.855469 970.441406 1207.617188 C 969.007812 1208.378906 967.398438 1209.367188 967.074219 1209.726562 C 966.292969 1210.566406 966.234375 1211.085938 965.707031 1212.0625 " fill-opacity="1" fill-rule="nonzero"/><path fill="#000000" d="M 1294.617188 732.734375 C 1294.339844 738.574219 1294.75 743.578125 1295.5 742.886719 C 1296.238281 742.210938 1296.933594 739.019531 1297.472656 732.492188 C 1297.9375 726.773438 1297.734375 719.957031 1297.09375 719.101562 C 1296.179688 717.882812 1295.007812 724.382812 1294.617188 732.734375 " fill-opacity="1" fill-rule="nonzero"/><path fill="#000000" d="M 305.648438 977.242188 C 306.523438 978.515625 307.648438 980.164062 308.226562 981 C 311.480469 985 312.4375 985 311.609375 982.011719 C 311.433594 981.378906 310.617188 979.511719 310.113281 978.75 C 308.4375 976.15625 305.917969 972.230469 305.285156 971.671875 C 303.863281 970.425781 302.949219 970.203125 302.726562 970.992188 C 302.617188 971.355469 304.597656 975.046875 305.648438 977.242188 " fill-opacity="1" fill-rule="nonzero"/><path fill="#000000" d="M 191.265625 577.234375 C 190.417969 579.074219 189.644531 580.191406 188.6875 582.945312 C 187.253906 587.09375 186.214844 594.214844 187.238281 593.472656 C 187.730469 593.128906 188.789062 590.8125 189.738281 588.066406 C 191.144531 584.003906 192.0625 577.355469 191.265625 577.234375 " fill-opacity="1" fill-rule="nonzero"/><path fill="#000000" d="M 308.988281 367.289062 C 308.347656 368.398438 307.371094 369.921875 307.117188 370.554688 C 306.253906 372.75 306.96875 372.851562 310.46875 368.863281 C 313.117188 366.222656 315.546875 363.347656 316.300781 361.757812 C 317.292969 359.730469 316.484375 359.722656 312.691406 363.246094 C 311.871094 364.148438 310.242188 365.914062 308.988281 367.289062 " fill-opacity="1" fill-rule="nonzero"/><path fill="#000000" d="M 612.945312 234.3125 C 612.433594 235.179688 617.242188 234.648438 622.609375 233.105469 C 625.296875 232.332031 628.550781 231.085938 629.277344 230.546875 C 630.804688 229.441406 625.492188 230.101562 619.964844 231.691406 C 617.242188 232.480469 615.25 233.429688 612.945312 234.3125 " fill-opacity="1" fill-rule="nonzero"/><path fill="#000000" d="M 294.699219 984.90625 C 293.808594 983.574219 292.589844 981.761719 292.078125 981 C 289.660156 978.070312 288.71875 977.78125 290.292969 981.378906 C 290.878906 982.71875 293.902344 987.789062 294.847656 989.023438 C 297.5 992.476562 298.019531 992.066406 296.738281 988.839844 C 296.328125 988.046875 295.398438 986.246094 294.699219 984.90625 " fill-opacity="1" fill-rule="nonzero"/><path fill="#000000" d="M 255.902344 614.597656 L 258.117188 610.03125 C 258.433594 607.828125 259.027344 604.769531 259.007812 603.625 C 258.992188 602.285156 258.542969 602.15625 258.089844 602.324219 C 257.503906 602.519531 256.589844 605.160156 255.761719 608.851562 C 255.445312 610.246094 255.167969 612.011719 255.214844 612.460938 C 255.335938 613.527344 255.652344 613.929688 255.902344 614.597656 " fill-opacity="1" fill-rule="nonzero"/><path fill="#000000" d="M 289.667969 489.964844 C 290.8125 488.734375 291.976562 487.488281 293.5 485.84375 C 293.902344 485.378906 294.980469 483.472656 295.648438 482.085938 C 297.492188 478.515625 298.832031 476.136719 297.734375 476.84375 C 296.523438 477.726562 294.503906 479.667969 293 481.828125 C 292.664062 482.273438 291.332031 484.933594 290.8125 486.1875 C 290.273438 487.460938 290.171875 488.261719 289.667969 489.964844 " fill-opacity="1" fill-rule="nonzero"/><path fill="#000000" d="M 209.8125 546.363281 C 210.808594 544.726562 211.664062 543.90625 212.835938 541.257812 C 214.398438 537.695312 215.625 533.445312 215.273438 532.886719 C 215.003906 532.460938 214.210938 533.175781 213.1875 535.0625 C 211.847656 537.519531 210.371094 541.742188 209.746094 544.679688 C 209.515625 545.792969 209.773438 545.832031 209.8125 546.363281 " fill-opacity="1" fill-rule="nonzero"/><path fill="#000000" d="M 826.273438 1269.539062 C 824.570312 1269.417969 823.742188 1269.019531 820.980469 1269.214844 C 816.664062 1269.53125 810.308594 1271.324219 811.007812 1272.058594 C 811.453125 1272.535156 814.886719 1272.402344 819.054688 1271.605469 C 822.132812 1271.007812 823.917969 1270.238281 826.273438 1269.539062 " fill-opacity="1" fill-rule="nonzero"/><path fill="#000000" d="M 346.398438 400.960938 C 347.246094 399.140625 349.320312 396.5625 349.199219 396.21875 C 349.117188 395.894531 347.265625 397 345.703125 398.710938 C 343.273438 401.398438 340.355469 406.617188 341.886719 405.761719 C 342.53125 405.398438 344.847656 402.636719 346.398438 400.960938 " fill-opacity="1" fill-rule="nonzero"/><path fill="#000000" d="M 1293.546875 788.15625 L 1293.773438 781.535156 C 1293.1875 784.140625 1292.617188 786.675781 1291.996094 789.457031 C 1291.9375 789.746094 1291.816406 792.804688 1291.96875 792.515625 C 1292.433594 791.605469 1293.007812 789.699219 1293.546875 788.15625 " fill-opacity="1" fill-rule="nonzero"/><path fill="#000000" d="M 238.675781 613.632812 L 241.039062 607.417969 C 241.167969 605.691406 241.308594 603.832031 241.410156 602.417969 C 241.417969 602.269531 240.351562 605.046875 240.164062 605.921875 C 239.644531 608.636719 239.167969 611.066406 238.675781 613.632812 " fill-opacity="1" fill-rule="nonzero"/><path fill="#000000" d="M 237.929688 803.917969 C 238.804688 809.117188 240.257812 813.347656 240.257812 810.304688 C 240.257812 808.699219 239.726562 804.066406 239.28125 801.871094 C 238.816406 799.585938 237.941406 797.121094 237.679688 797.417969 C 237.457031 797.6875 237.828125 801.601562 237.929688 803.917969 " fill-opacity="1" fill-rule="nonzero"/><path fill="#000000" d="M 997.042969 302.074219 L 990.410156 299.089844 C 992.253906 300.53125 994.261719 302.375 995.882812 303.304688 C 998.269531 304.679688 1000.375 305.414062 1002.605469 306.417969 L 997.042969 302.074219 " fill-opacity="1" fill-rule="nonzero"/><path fill="#000000" d="M 570.527344 1211.542969 L 564.445312 1208.648438 C 562.957031 1208.417969 561.320312 1208.175781 560.175781 1208 C 560.027344 1207.988281 562.230469 1209.039062 563.589844 1209.589844 C 567.363281 1211.105469 569.726562 1211.753906 570.527344 1211.542969 " fill-opacity="1" fill-rule="nonzero"/><path fill="#000000" d="M 426.0625 290.171875 C 431.066406 286.601562 435.324219 282.78125 433.613281 283.253906 C 432.804688 283.488281 429.261719 285.625 427.4375 287.019531 C 425.25 288.695312 422.441406 291.296875 422.0625 291.96875 C 421.753906 292.527344 424.601562 290.851562 426.0625 290.171875 " fill-opacity="1" fill-rule="nonzero"/><path fill="#000000" d="M 248.378906 955.789062 C 247.148438 953.921875 245.160156 950.453125 244.851562 950.5 C 244.15625 950.582031 247.160156 957.945312 249.519531 962.160156 C 250.246094 963.453125 251.046875 964.613281 251.382812 964.875 C 252.648438 965.859375 251.175781 961.5 248.378906 955.789062 " fill-opacity="1" fill-rule="nonzero"/><path fill="#000000" d="M 820.421875 172.066406 C 823.25 172.902344 826.679688 173.5 830.085938 173.664062 C 831.238281 173.730469 832.214844 173.542969 831.582031 173.332031 C 829.183594 172.523438 825.480469 171.90625 822.105469 171.75 C 820.949219 171.695312 820.949219 171.953125 820.421875 172.066406 " fill-opacity="1" fill-rule="nonzero"/><path fill="#000000" d="M 281.230469 1000.035156 C 279.304688 997.570312 278.988281 997.792969 280.730469 1001.253906 C 281.242188 1002.285156 282.710938 1004.710938 283.316406 1005.539062 C 285.511719 1008.476562 285.722656 1008.058594 283.917969 1004.488281 C 283.316406 1003.484375 282.179688 1001.605469 281.230469 1000.035156 " fill-opacity="1" fill-rule="nonzero"/><path fill="#000000" d="M 226.460938 861.367188 L 226.128906 858.28125 C 225.363281 856.355469 224.546875 854.261719 223.914062 852.683594 C 223.800781 852.414062 224.097656 854.523438 224.203125 855.535156 L 226.460938 861.367188 " fill-opacity="1" fill-rule="nonzero"/><path fill="#000000" d="M 1239.273438 706.546875 C 1239.113281 708.992188 1238.734375 711.375 1238.863281 713.894531 C 1239.058594 718.050781 1239.636719 719.621094 1240.0625 717.863281 C 1240.222656 717.214844 1240.386719 715.726562 1240.359375 714.265625 C 1240.25 709.859375 1239.847656 707.199219 1239.273438 706.546875 " fill-opacity="1" fill-rule="nonzero"/><path fill="#000000" d="M 365.898438 1134.804688 C 365.179688 1133.941406 364.679688 1133.121094 363.710938 1132.203125 C 360.335938 1129.003906 358.371094 1127.582031 358.667969 1128.539062 C 358.78125 1128.863281 359.804688 1130.136719 360.78125 1131.058594 C 364.175781 1134.277344 365.953125 1135.539062 365.898438 1134.804688 " fill-opacity="1" fill-rule="nonzero"/><path fill="#000000" d="M 190.324219 609.222656 C 190.78125 606.425781 191.859375 603.746094 192.648438 601.011719 C 192.648438 600.304688 192.722656 598.789062 192.648438 598.996094 C 191.859375 601.535156 190.996094 604.3125 190.148438 607.039062 L 190.324219 609.222656 " fill-opacity="1" fill-rule="nonzero"/><path fill="#000000" d="M 294.503906 1036.542969 L 296.113281 1039.378906 L 297.472656 1040.375 Z M 294.503906 1036.542969 " fill-opacity="1" fill-rule="nonzero"/><path fill="#000000" d="M 230.84375 949 L 229.859375 946.089844 L 228.796875 944.929688 Z M 230.84375 949 " fill-opacity="1" fill-rule="nonzero"/><path fill="#000000" d="M 1286.886719 774.859375 L 1287.371094 775.222656 L 1287.371094 771.222656 Z M 1286.886719 774.859375 " fill-opacity="1" fill-rule="nonzero"/><path fill="#000000" d="M 901.847656 1239.234375 L 901.691406 1239.847656 L 905.484375 1238.238281 Z M 901.847656 1239.234375 " fill-opacity="1" fill-rule="nonzero"/><path fill="#000000" d="M 497.683594 1225.203125 L 498.195312 1224.886719 L 494.390625 1223.285156 Z M 497.683594 1225.203125 " fill-opacity="1" fill-rule="nonzero"/><path fill="#000000" d="M 1076.546875 1144.765625 L 1079.179688 1142.355469 L 1075.632812 1144.800781 Z M 1076.546875 1144.765625 " fill-opacity="1" fill-rule="nonzero"/><path fill="#000000" d="M 211.664062 857.15625 C 211.671875 857.90625 211.515625 858.371094 211.757812 859.5 C 212.089844 860.605469 212.648438 862.417969 213.113281 863.925781 C 213.09375 863.179688 213.273438 862.714844 213.03125 861.609375 C 212.675781 860.472656 212.128906 858.671875 211.664062 857.15625 " fill-opacity="1" fill-rule="nonzero"/><path fill="#000000" d="M 195.394531 699.515625 L 195.132812 704.007812 L 195.664062 702.175781 Z M 195.394531 699.515625 " fill-opacity="1" fill-rule="nonzero"/><path fill="#000000" d="M 276.171875 938.726562 L 278.171875 942.964844 L 277.769531 941.03125 Z M 276.171875 938.726562 " fill-opacity="1" fill-rule="nonzero"/><path fill="#000000" d="M 237.261719 740.695312 L 236.75 737.503906 L 236.789062 741.371094 Z M 237.261719 740.695312 " fill-opacity="1" fill-rule="nonzero"/><path fill="#000000" d="M 766.832031 1218.359375 L 771.140625 1218.179688 L 769.34375 1217.828125 Z M 766.832031 1218.359375 " fill-opacity="1" fill-rule="nonzero"/><path fill="#000000" d="M 1133.855469 426.003906 L 1136.386719 429.007812 C 1136.152344 428.441406 1136.160156 428.023438 1135.621094 427.242188 C 1135 426.488281 1133.996094 425.277344 1133.15625 424.265625 L 1133.855469 426.003906 " fill-opacity="1" fill-rule="nonzero"/><path fill="#000000" d="M 451.054688 1125.144531 L 449.035156 1123.144531 L 447.667969 1122.707031 Z M 451.054688 1125.144531 " fill-opacity="1" fill-rule="nonzero"/><path fill="#000000" d="M 914.351562 263.148438 L 910.285156 261.625 L 911.800781 262.667969 Z M 914.351562 263.148438 " fill-opacity="1" fill-rule="nonzero"/><path fill="#000000" d="M 708.398438 1274.847656 L 705.273438 1274.300781 L 703.71875 1274.691406 Z M 708.398438 1274.847656 " fill-opacity="1" fill-rule="nonzero"/><path fill="#000000" d="M 726.480469 232.082031 L 722.9375 232.257812 L 724.386719 232.554688 Z M 726.480469 232.082031 " fill-opacity="1" fill-rule="nonzero"/><path fill="#000000" d="M 776.015625 224.734375 L 773.734375 224.289062 L 772.359375 224.632812 Z M 776.015625 224.734375 " fill-opacity="1" fill-rule="nonzero"/><path fill="#000000" d="M 330.566406 1028.992188 L 328.699219 1027.011719 L 330.578125 1029.699219 Z M 330.566406 1028.992188 " fill-opacity="1" fill-rule="nonzero"/><path fill="#000000" d="M 179.859375 742.460938 L 179.796875 745.742188 L 180.269531 745.679688 Z M 179.859375 742.460938 " fill-opacity="1" fill-rule="nonzero"/><g fill="#000000" fill-opacity="1"><g transform="translate(356.256444, 755.608663)"><g><path d="M -0.445312 -27.777344 L -1.25 -37.910156 L -1.1875 -41.644531 L -1.785156 -46.394531 L -3.609375 -50.679688 L -8.03125 -52.375 L -12.164062 -52.011719 L -16.730469 -52.042969 L -24.375 -51.332031 L -28.328125 -51.597656 L -33.082031 -51.207031 L -36.882812 -52.925781 L -39.34375 -57.601562 L -39.933594 -62.144531 L -39.273438 -66.523438 L -41.75 -87.792969 L -50.378906 -107.167969 L -52.980469 -110.179688 L -56.40625 -112.949219 L -59.203125 -115.539062 L -62.414062 -118.113281 L -69.210938 -122.207031 L -77.421875 -125.417969 L -82.003906 -125.863281 L -85.363281 -126.976562 L -102.363281 -126.738281 L -105.851562 -125.777344 L -110.386719 -124.980469 L -117.953125 -122.199219 L -124.84375 -117.992188 L -131.488281 -112.757812 L -139.207031 -103.128906 L -143.5 -96.117188 L -145.667969 -87.738281 L -146.980469 -84.160156 L -146.820312 -80.019531 L -148.113281 -75.820312 L -148.082031 -69.597656 L -147.617188 -62.980469 L -146.820312 -58.445312 L -146.542969 -45.804688 L -147.003906 -41.636719 L -145.683594 -28.828125 L -145.714844 -24.265625 L -146.191406 -20.511719 L -145.195312 -16.195312 L -142.75 -11.933594 L -139.367188 -10.195312 L -114.3125 -11.367188 L -105.996094 -10.859375 L -102.078125 -11.421875 L -48.425781 -13.277344 L -44.507812 -13.84375 L -6.183594 -15.113281 L -2.335938 -17.542969 L -0.511719 -24.042969 Z M -72.476562 -56.121094 L -74.800781 -51.882812 L -78.25 -49.882812 L -95.003906 -48.617188 L -99.367188 -48.863281 L -107.859375 -48.535156 L -111.875 -50.457031 L -114.113281 -54.726562 L -114.320312 -76.289062 L -112.617188 -80.503906 L -110.464844 -83.90625 L -107.875 -86.703125 L -103.8125 -88.933594 L -100.109375 -89.699219 L -94.324219 -90.335938 L -88.71875 -90.136719 L -84.933594 -88.828125 L -81.546875 -87.09375 L -78.132812 -84.527344 L -75.519531 -81.308594 L -74.355469 -78.035156 L -73.28125 -71.644531 L -73.082031 -61.074219 Z M -72.476562 -56.121094 "/></g></g></g><g fill="#000000" fill-opacity="1"><g transform="translate(352.536682, 619.763508)"><g><path d="M 23.328125 -68.253906 L 32.28125 -96.515625 L 31.882812 -101.234375 L 28.472656 -104.769531 L 8.605469 -111.367188 L 3.953125 -110.511719 L 0.808594 -106.96875 L -0.300781 -102.316406 L -2.132812 -98.773438 L -5.660156 -88.808594 L -7.03125 -82.054688 L -8.730469 -78.25 L -9.972656 -73.859375 L -11.804688 -70.316406 L -12.847656 -65.859375 L -16.1875 -62.382812 L -20.25 -61.984375 L -32.644531 -66.101562 L -36.183594 -69.242188 L -37.171875 -73.503906 L -35.410156 -79.46875 L -32.726562 -85.566406 L -30.636719 -93.171875 L -27.761719 -101.171875 L -26.847656 -105.238281 L -25.148438 -109.695312 L -25.417969 -114.152344 L -28.894531 -116.835938 L -46.398438 -123.308594 L -52.5625 -123.171875 L -56.621094 -119.496094 L -60.476562 -107.890625 L -61.457031 -103.628906 L -64.789062 -95.5625 L -68.1875 -84.023438 L -71.328125 -80.480469 L -77.949219 -80.933594 L -84.046875 -82.960938 L -87.195312 -85.972656 L -87.332031 -90.820312 L -85.894531 -94.492188 L -85.4375 -98.492188 L -75.703125 -126.488281 L -74.65625 -130.292969 L -75.644531 -135.207031 L -78.53125 -138.351562 L -82.53125 -139.460938 L -86.398438 -140.964844 L -98.332031 -144.492188 L -102.65625 -143.960938 L -105.539062 -140.550781 L -106.910156 -136.421875 L -108.875 -133.140625 L -113.96875 -117.144531 L -115.015625 -112.683594 L -116.714844 -108.882812 L -117.628906 -105.472656 L -119.328125 -101.667969 L -124.292969 -85.410156 L -126.191406 -81.671875 L -126.644531 -77.671875 L -128.214844 -74.261719 L -129.128906 -70.199219 L -130.632812 -66.328125 L -130.429688 -61.675781 L -127.019531 -58.140625 L -119.414062 -56.050781 L -111.546875 -52.78125 L -107.023438 -51.933594 L -87.875 -45.136719 L -83.550781 -44.355469 L -79.941406 -42.71875 L -63.878906 -37.164062 L -60.140625 -36.578125 L -28.339844 -25.796875 L -24.734375 -24.160156 L -20.605469 -23.445312 L -7.230469 -18.34375 L -2.769531 -17.300781 L 3.0625 -17.109375 L 7.582031 -22.160156 L 12.480469 -36.257812 L 13.527344 -40.71875 L 14.898438 -44.191406 L 16.988281 -52.453125 L 19.015625 -55.929688 L 20.714844 -60.386719 L 21.628906 -64.453125 Z M 23.328125 -68.253906 "/></g></g></g><g fill="#000000" fill-opacity="1"><g transform="translate(387.612079, 506.591351)"><g><path d="M 3.320312 -17.402344 L 9.597656 -14.917969 L 15.496094 -17.847656 L 17.652344 -21.441406 L 22.347656 -26.167969 L 24.136719 -28.992188 L 28.085938 -33.792969 L 30.703125 -40.230469 L 27.25 -45.492188 L 21.808594 -49.96875 L 19.191406 -52.660156 L 15.433594 -54.949219 L 5.457031 -63.699219 L 3.441406 -67.773438 L 4.183594 -72.261719 L 13.105469 -80.492188 L 18.460938 -81.453125 L 23.242188 -80.738281 L 27.175781 -79.644531 L 34.742188 -79.054688 L 43.007812 -77.351562 L 46.855469 -77.136719 L 51.109375 -75.78125 L 55.28125 -75.304688 L 61.058594 -76.453125 L 66.976562 -80.707031 L 77.226562 -93.480469 L 80.046875 -96.257812 L 84.234375 -101.667969 L 85.296875 -105.894531 L 82.566406 -109.753906 L 77.597656 -110.890625 L 73.777344 -110.816406 L 69.683594 -112.039062 L 57.042969 -113.316406 L 52.976562 -114.246094 L 40.441406 -115.976562 L 36.460938 -116.03125 L 32.488281 -119.035156 L 30.152344 -123.375 L 29.597656 -127.589844 L 29.519531 -131.410156 L 23.457031 -146.871094 L 15.886719 -156.59375 L 5.542969 -164.574219 L 1.949219 -166.726562 L -9.546875 -171.355469 L -13.320312 -172.316406 L -17.328125 -172.664062 L -34.4375 -171.445312 L -42.089844 -168.347656 L -49.175781 -163.980469 L -58.765625 -156.570312 L -63.140625 -151.582031 L -66.640625 -146.679688 L -74.546875 -137.078125 L -77.820312 -134.402344 L -80.453125 -131.203125 L -82.027344 -127.664062 L -84.660156 -124.464844 L -87.933594 -121.789062 L -90.992188 -118.402344 L -97.964844 -108.300781 L -98.738281 -104.105469 L -95.835938 -98.496094 L -59.0625 -68.488281 L -55.597656 -66.171875 L -49.589844 -60.421875 L -45.9375 -57.683594 L -42.738281 -55.050781 L -39.433594 -52.867188 L -36.65625 -50.042969 L -23.828125 -39.214844 L -20.363281 -36.898438 Z M -21.417969 -93.339844 L -25.8125 -91.589844 L -29.425781 -92.417969 L -39.027344 -100.320312 L -42.011719 -102.242188 L -48.46875 -108.09375 L -50.324219 -112.035156 L -48.839844 -116.449219 L -46.042969 -119.519531 L -41.414062 -126.449219 L -36.765625 -130.136719 L -33.019531 -134.035156 L -29.71875 -136.417969 L -21.464844 -136.332031 L -18.113281 -135.1875 L -13.425781 -132.402344 L -9.019531 -127.96875 L -7.003906 -123.894531 L -6.054688 -120.15625 L -6.0625 -117.210938 L -7.152344 -113.277344 L -9.855469 -107.714844 L -12.195312 -104.542969 L -18.839844 -97.125 Z M -21.417969 -93.339844 "/></g></g></g><g fill="#000000" fill-opacity="1"><g transform="translate(473.684246, 395.725307)"><g><path d="M 19.683594 -8.804688 L 23.148438 -11.167969 L 30.609375 -14.304688 L 34.445312 -16.847656 L 40.601562 -19.355469 L 44.746094 -24.117188 L 45.367188 -28.558594 L 35.351562 -47.890625 L 33.117188 -53.945312 L 31.039062 -57.777344 L 28.171875 -64.679688 L 25.816406 -68.605469 L 22.304688 -75.886719 L 23.175781 -78.375 L 25.402344 -78.53125 L 29.558594 -77.542969 L 33.152344 -75.824219 L 44.496094 -71.863281 L 48.363281 -70.046875 L 55.746094 -67.625 L 61.019531 -66.714844 L 65.214844 -68.507812 L 67.597656 -73.109375 L 68.859375 -77.171875 L 70.019531 -80.492188 L 72.277344 -89.175781 L 73.988281 -92.300781 L 77.859375 -103.835938 L 79.746094 -106.125 L 82.589844 -104.046875 L 87.171875 -93.597656 L 91.332031 -86.402344 L 94.472656 -78.941406 L 98.175781 -72.214844 L 99.425781 -68.671875 L 103.851562 -60.453125 L 105.203125 -57.652344 L 108.765625 -54.078125 L 113.226562 -54.851562 L 136.175781 -65 L 139.105469 -68.945312 L 138.734375 -75.4375 L 133.492188 -84.875 L 132.0625 -88.789062 L 104.675781 -144.617188 L 103.066406 -148.902344 L 93.964844 -167.292969 L 92.441406 -170.929688 L 88.195312 -178.777344 L 86.851562 -182.042969 L 82.972656 -189.605469 L 81.632812 -193.332031 L 77.5 -196.171875 L 72.589844 -196.335938 L 67.988281 -192.042969 L 65.238281 -187.726562 L 61.359375 -175.730469 L 60.375 -171.570312 L 59.125 -168.4375 L 58.132812 -163.816406 L 49.808594 -139.089844 L 48.914062 -134.746094 L 43.109375 -117.679688 L 40.828125 -113.816406 L 36.1875 -113.417969 L 32.417969 -115.511719 L 28.542969 -116.863281 L 23.109375 -119.539062 L 17.203125 -121.289062 L -8.882812 -131.949219 L -12.574219 -132.929688 L -20.222656 -136.375 L -24.46875 -137.546875 L -31.753906 -140.246094 L -37.578125 -141.347656 L -43.527344 -140.320312 L -46.734375 -136.472656 L -46.894531 -131.5625 L -40.84375 -120.445312 L -37.890625 -112.894531 L -35.894531 -109.714844 L -21.671875 -79.753906 L -19.5 -76.199219 L -10.964844 -57.074219 L -8.878906 -53.707031 L 10.835938 -12.359375 L 14.78125 -9.429688 Z M 19.683594 -8.804688 "/></g></g></g><g fill="#000000" fill-opacity="1"><g transform="translate(625.705564, 323.938731)"><g><path d="M 122.289062 -0.6875 L 130.160156 -1.382812 L 134.101562 -1.003906 L 140.523438 -1.269531 L 146.316406 -2.355469 L 146.894531 -7.335938 L 145.398438 -12.089844 L 142.222656 -19.730469 L 136.527344 -30.457031 L 133.558594 -38.101562 L 129.34375 -45.523438 L 121.300781 -64.3125 L 119.199219 -67.40625 L 117.089844 -71.324219 L 115.804688 -75.871094 L 113.914062 -78.964844 L 112.640625 -82.269531 L 108.21875 -89.898438 L 106.726562 -94.238281 L 92.789062 -122.925781 L 91.507812 -127.058594 L 89.195312 -130.769531 L 87.917969 -134.488281 L 83.914062 -141.707031 L 80.355469 -145.40625 L 73.496094 -147.417969 L 66.886719 -145.078125 L 63.1875 -141.519531 L 61.351562 -137.980469 L 59.941406 -133.820312 L 58.101562 -130.902344 L 49.980469 -111.757812 L 47.730469 -108.628906 L 46.730469 -104.476562 L 44.488281 -100.515625 L 43.277344 -96.773438 L 22.535156 -52.230469 L 21.335938 -47.660156 L 19.289062 -44.53125 L 17.875 -40.375 L 14.207031 -33.707031 L 11.171875 -25.390625 L 8.917969 -22.464844 L 7.914062 -18.726562 L 3.84375 -10.398438 L 2.636719 -6.242188 L 3.722656 -1.070312 L 7.878906 0.136719 L 15.957031 -0.351562 L 20.105469 0.0273438 L 31.710938 -0.492188 L 36.464844 -1.988281 L 40.367188 -5.753906 L 44.035156 -12.625 L 47.9375 -16.601562 L 52.269531 -18.917969 L 56.214844 -18.332031 L 64.910156 -19.242188 L 68.648438 -18.652344 L 88.957031 -19.042969 L 92.691406 -18.664062 L 97.246094 -19.324219 L 101.828125 -17.085938 L 105.792969 -13.804688 L 107.695312 -9.882812 L 108.972656 -6.164062 L 113.144531 -3.09375 L 117.933594 -1.0625 Z M 74.773438 -51.871094 L 70.621094 -52.664062 L 65.859375 -52.207031 L 62.527344 -53.628906 L 62.285156 -57.5625 L 71.824219 -80.035156 L 74.089844 -81.921875 L 77.003906 -80.289062 L 86.953125 -57.578125 L 86.15625 -53.839844 L 83.0625 -52.15625 Z M 74.773438 -51.871094 "/></g></g></g><g fill="#000000" fill-opacity="1"><g transform="translate(772.701987, 321.253196)"><g><path d="M 113.5 45.660156 L 117.304688 50.9375 L 122.375 53.828125 L 127.132812 54.320312 L 130.691406 51.351562 L 161.316406 -17.828125 L 162.15625 -21.308594 L 170.359375 -40.117188 L 172.917969 -44.425781 L 183.867188 -71.082031 L 183.625 -75.710938 L 180.734375 -79.457031 L 157.09375 -89.542969 L 152.574219 -89.027344 L 148.742188 -85.949219 L 146.8125 -82.042969 L 146.058594 -78.753906 L 142.007812 -71.023438 L 140.5625 -66.679688 L 125.351562 -32.835938 L 122.800781 -30.105469 L 120.53125 -32.679688 L 112.925781 -52.050781 L 109.429688 -58.550781 L 88.492188 -112.679688 L 86.636719 -116.203125 L 83.261719 -120.390625 L 78.144531 -124.207031 L 72.945312 -124.210938 L 69.660156 -121.347656 L 44.554688 -63.78125 L 42.953125 -60.636719 L 39.9375 -52.679688 L 37.957031 -49.699219 L 24.75 -18.375 L 22.792969 -14.933594 L 16.214844 1.191406 L 16.347656 5.546875 L 19.757812 8.617188 L 27.382812 12.394531 L 31.726562 13.839844 L 38.886719 17.640625 L 42.960938 19.191406 L 47.589844 18.949219 L 52.058594 13.886719 L 73.210938 -34.097656 L 75.25 -37.730469 L 77.988281 -40.378906 L 80.042969 -38.351562 L 81.105469 -34.046875 L 88.960938 -15.242188 L 90.1875 -11.316406 L 92.503906 -7.816406 L 109.191406 34.285156 L 111.726562 41.949219 Z M 113.5 45.660156 "/></g></g></g><g fill="#000000" fill-opacity="1"><g transform="translate(912.619902, 385.772512)"><g><path d="M 50.117188 51.878906 L 71.191406 72.726562 L 75.570312 74.523438 L 80.273438 73.097656 L 95.203125 58.421875 L 96.5625 53.890625 L 94.839844 49.480469 L 91.203125 46.371094 L 88.886719 43.125 L 81.625 35.441406 L 76.238281 31.144531 L 73.628906 27.898438 L 70.285156 24.789062 L 67.96875 21.546875 L 64.476562 18.585938 L 62.902344 14.027344 L 64.402344 10.230469 L 73.714844 1.078125 L 78.125 -0.644531 L 82.367188 0.417969 L 86.875 4.707031 L 91.078125 9.875 L 96.894531 15.199219 L 102.707031 21.40625 L 105.90625 24.074219 L 109.101562 27.617188 L 113.1875 29.410156 L 117.164062 27.539062 L 130.902344 14.90625 L 133.589844 9.363281 L 132.167969 4.074219 L 123.597656 -4.648438 L 120.25 -7.460938 L 114.589844 -14.105469 L 105.867188 -22.390625 L 104.148438 -26.800781 L 107.566406 -32.488281 L 112.152344 -36.992188 L 116.265625 -38.421875 L 120.644531 -36.332031 L 123.257812 -33.378906 L 126.609375 -31.152344 L 147.089844 -9.722656 L 150 -7.058594 L 154.824219 -5.699219 L 158.9375 -6.835938 L 161.75 -9.886719 L 164.851562 -12.648438 L 173.429688 -21.660156 L 174.929688 -25.75 L 173.207031 -29.871094 L 170.15625 -32.972656 L 168.132812 -36.214844 L 156.214844 -48.042969 L 152.722656 -51.003906 L 150.113281 -54.253906 L 147.496094 -56.621094 L 144.886719 -59.867188 L 132.675781 -71.699219 L 130.214844 -75.089844 L 126.863281 -77.316406 L 124.542969 -80.269531 L 121.339844 -82.933594 L 118.582031 -86.035156 L 114.351562 -87.980469 L 109.648438 -86.554688 L 104.320312 -80.738281 L 97.824219 -75.222656 L 95.007812 -71.582031 L 80.230469 -57.640625 L 77.5625 -54.144531 L 74.464844 -51.679688 L 62.195312 -39.914062 L 59.972656 -36.855469 L 35.878906 -13.46875 L 32.78125 -11.003906 L 30.257812 -7.652344 L 19.625 1.929688 L 16.660156 5.421875 L 13.832031 10.527344 L 16.269531 16.847656 L 26.582031 27.636719 L 30.074219 30.597656 L 32.542969 33.40625 L 38.941406 39.03125 L 41.113281 42.421875 L 44.304688 45.964844 L 47.507812 48.632812 Z M 50.117188 51.878906 "/></g></g></g><g fill="#000000" fill-opacity="1"><g transform="translate(997.97065, 467.176219)"><g><path d="M 50.199219 111.566406 L 49.285156 118.007812 L 50.941406 123.605469 L 54.03125 127.257812 L 58.652344 127.582031 L 128.667969 98.921875 L 131.683594 96.992188 L 150.632812 89.117188 L 155.464844 87.78125 L 181.828125 76.144531 L 184.859375 72.640625 L 185.375 67.9375 L 175.316406 44.285156 L 171.699219 41.523438 L 166.804688 41.089844 L 162.707031 42.570312 L 159.882812 44.417969 L 151.605469 47.183594 L 147.554688 49.316406 L 113.136719 63.175781 L 109.40625 63.382812 L 109.550781 59.953125 L 117.492188 40.714844 L 119.472656 33.605469 L 141.882812 -19.929688 L 142.988281 -23.757812 L 143.453125 -29.113281 L 142.40625 -35.414062 L 138.660156 -39.019531 L 134.308594 -39.230469 L 76.320312 -15.121094 L 72.984375 -13.957031 L 65.296875 -10.3125 L 61.804688 -9.535156 L 30.578125 3.898438 L 26.78125 5.027344 L 10.863281 12.09375 L 7.945312 15.328125 L 8.273438 19.90625 L 11.15625 27.910156 L 13.289062 31.960938 L 15.816406 39.664062 L 17.679688 43.605469 L 21.183594 46.636719 L 27.914062 46.082031 L 76.414062 26.144531 L 80.402344 24.933594 L 84.210938 24.921875 L 84.289062 27.808594 L 82.070312 31.648438 L 74.707031 50.648438 L 72.867188 54.328125 L 72.117188 58.457031 L 54.976562 100.378906 L 51.496094 107.660156 Z M 50.199219 111.566406 "/></g></g></g><g fill="#000000" fill-opacity="1"><g transform="translate(1053.955781, 610.892747)"><g><path d="M 0.382812 54.097656 L 1 67.976562 L 3.160156 73.957031 L 8.992188 75.945312 L 19.78125 76.40625 L 27.644531 75.667969 L 32.003906 76.019531 L 40.292969 75.691406 L 44.027344 76.050781 L 48.578125 75.363281 L 81.949219 75.285156 L 86.292969 74.601562 L 104.332031 74.957031 L 110.574219 76.523438 L 113.121094 80.425781 L 113.652344 88.5 L 112.730469 96.183594 L 113.417969 100.527344 L 113.265625 104.261719 L 115.59375 107.75 L 120.191406 110.171875 L 139.882812 110.089844 L 143.996094 107.746094 L 146.628906 103.769531 L 146.441406 90.921875 L 146.796875 86.976562 L 146.113281 82.632812 L 146.46875 78.691406 L 145.394531 61.914062 L 146.160156 57.757812 L 146.3125 53.816406 L 145.625 49.472656 L 145.972656 44.910156 L 145.089844 41.191406 L 145.53125 28.953125 L 144.8125 22.539062 L 145.429688 8.019531 L 143.300781 4.113281 L 138.496094 1.695312 L 134.355469 1.960938 L 123.984375 1.699219 L 117.566406 2.210938 L 113.863281 4.128906 L 111.847656 7.890625 L 112.320312 12.03125 L 112.195312 31.722656 L 110.183594 35.691406 L 106.070312 38.03125 L 99.433594 37.714844 L 93.636719 38.214844 L 89.074219 38.074219 L 84.933594 38.34375 L 79.121094 38.015625 L 48.253906 39.089844 L 44.101562 38.738281 L 27.3125 38.777344 L 22.964844 39.253906 L 10.941406 39.226562 L 6.996094 38.867188 L 2.476562 41.628906 L 0.492188 47.671875 Z M 0.382812 54.097656 "/></g></g></g><g fill="#000000" fill-opacity="1"><g transform="translate(1051.124833, 732.158792)"><g/></g></g><g fill="#000000" fill-opacity="1"><g transform="translate(1033.889776, 796.656451)"><g/></g></g><g clip-path="url(#410d0212ea)"><path fill="#000000" d="M 322.265625 917.285156 L 331.847656 936.726562 L 353.28125 939.84375 L 337.765625 954.984375 L 341.441406 976.351562 L 322.265625 966.261719 L 303.078125 976.351562 L 306.738281 954.984375 L 291.238281 939.84375 L 312.671875 936.726562 Z M 322.265625 917.285156 " fill-opacity="1" fill-rule="nonzero"/><path fill="#000000" d="M 322.117188 917.101562 L 331.710938 936.539062 L 353.144531 939.65625 L 337.628906 954.796875 L 341.289062 976.164062 L 322.117188 966.078125 L 302.941406 976.164062 L 306.605469 954.796875 L 291.089844 939.65625 L 312.523438 936.539062 Z M 322.117188 917.101562 " fill-opacity="1" fill-rule="nonzero"/><path fill="#000000" d="M 322.117188 917.101562 L 331.710938 936.539062 L 353.144531 939.65625 L 337.628906 954.796875 L 341.289062 976.164062 L 322.117188 966.078125 L 302.941406 976.164062 L 306.605469 954.796875 L 291.089844 939.65625 L 312.523438 936.539062 Z M 322.117188 917.101562 " fill-opacity="1" fill-rule="nonzero"/><path fill="#000000" d="M 322.117188 917.101562 L 331.710938 936.539062 L 353.144531 939.65625 L 337.628906 954.796875 L 341.289062 976.164062 L 322.117188 966.078125 L 302.941406 976.164062 L 306.605469 954.796875 L 291.089844 939.65625 L 312.523438 936.539062 Z M 322.117188 917.101562 " fill-opacity="1" fill-rule="nonzero"/></g><g clip-path="url(#c9726b3083)"><path fill="#000000" d="M 1149.804688 917.285156 L 1159.386719 936.726562 L 1180.820312 939.84375 L 1165.304688 954.984375 L 1168.980469 976.351562 L 1149.804688 966.261719 L 1130.621094 976.351562 L 1134.28125 954.984375 L 1118.78125 939.84375 L 1140.210938 936.726562 Z M 1149.804688 917.285156 " fill-opacity="1" fill-rule="nonzero"/><path fill="#000000" d="M 1149.65625 917.101562 L 1159.25 936.539062 L 1180.683594 939.65625 L 1165.171875 954.796875 L 1168.832031 976.164062 L 1149.65625 966.078125 L 1130.484375 976.164062 L 1134.144531 954.796875 L 1118.628906 939.65625 L 1140.0625 936.539062 Z M 1149.65625 917.101562 " fill-opacity="1" fill-rule="nonzero"/><path fill="#000000" d="M 1149.65625 917.101562 L 1159.25 936.539062 L 1180.683594 939.65625 L 1165.171875 954.796875 L 1168.832031 976.164062 L 1149.65625 966.078125 L 1130.484375 976.164062 L 1134.144531 954.796875 L 1118.628906 939.65625 L 1140.0625 936.539062 Z M 1149.65625 917.101562 " fill-opacity="1" fill-rule="nonzero"/><path fill="#000000" d="M 1149.65625 917.101562 L 1159.25 936.539062 L 1180.683594 939.65625 L 1165.171875 954.796875 L 1168.832031 976.164062 L 1149.65625 966.078125 L 1130.484375 976.164062 L 1134.144531 954.796875 L 1118.628906 939.65625 L 1140.0625 936.539062 Z M 1149.65625 917.101562 " fill-opacity="1" fill-rule="nonzero"/></g><g clip-path="url(#19735ef38b)"><path fill="#000000" d="M 731.363281 432 C 572.242188 432 443.363281 560.878906 443.363281 720 C 443.363281 879.121094 572.242188 1008 731.363281 1008 C 890.480469 1008 1019.363281 879.121094 1019.363281 720 C 1019.363281 560.878906 890.480469 432 731.363281 432 Z M 731.363281 950.398438 C 604.066406 950.398438 500.960938 847.296875 500.960938 720 C 500.960938 592.703125 604.066406 489.601562 731.363281 489.601562 C 858.65625 489.601562 961.761719 592.703125 961.761719 720 C 961.761719 847.296875 858.65625 950.398438 731.363281 950.398438 Z M 731.363281 950.398438 " fill-opacity="1" fill-rule="nonzero"/></g><g fill="#000000" fill-opacity="1"><g transform="translate(422.53933, 1124.775562)"><g><path d="M 61.515625 8.6875 C 56.492188 15.96875 50.703125 20.425781 44.140625 22.0625 C 37.585938 23.707031 31.03125 22.269531 24.46875 17.75 C 17.757812 13.132812 13.992188 7.519531 13.171875 0.90625 C 12.359375 -5.695312 14.523438 -12.734375 19.671875 -20.203125 C 24.765625 -27.617188 30.539062 -32.109375 37 -33.671875 C 43.46875 -35.242188 50.066406 -33.71875 56.796875 -29.09375 C 63.335938 -24.59375 67.015625 -19 67.828125 -12.3125 C 68.648438 -5.625 66.546875 1.375 61.515625 8.6875 Z M 25.21875 -16.296875 C 20.96875 -10.128906 19.0625 -4.546875 19.5 0.453125 C 19.9375 5.453125 22.65625 9.671875 27.65625 13.109375 C 32.695312 16.585938 37.597656 17.625 42.359375 16.21875 C 47.128906 14.8125 51.644531 11.015625 55.90625 4.828125 C 60.125 -1.296875 62.035156 -6.820312 61.640625 -11.75 C 61.253906 -16.6875 58.550781 -20.882812 53.53125 -24.34375 C 48.488281 -27.8125 43.554688 -28.859375 38.734375 -27.484375 C 33.910156 -26.109375 29.40625 -22.378906 25.21875 -16.296875 Z M 25.21875 -16.296875 "/></g></g></g><g fill="#000000" fill-opacity="1"><g transform="translate(489.699747, 1168.968704)"><g><path d="M 45.875 21.8125 L 39.234375 18.65625 L 31.875 -36.21875 L 31.609375 -36.34375 C 29.640625 -31.257812 27.679688 -26.664062 25.734375 -22.5625 L 12.234375 5.8125 L 6.875 3.265625 L 30.625 -46.671875 L 37.171875 -43.5625 L 44.53125 11.125 L 44.8125 11.25 C 45.050781 10.625 45.882812 8.601562 47.3125 5.1875 C 48.75 1.78125 49.832031 -0.628906 50.5625 -2.046875 L 64.1875 -30.703125 L 69.625 -28.125 Z M 45.875 21.8125 "/></g></g></g><g fill="#000000" fill-opacity="1"><g transform="translate(560.306165, 1200.103594)"><g/></g></g><g fill="#000000" fill-opacity="1"><g transform="translate(597.000202, 1212.343281)"><g><path d="M 41.328125 9.296875 L 38.46875 -9.375 L 16.84375 -14.234375 L 6.34375 1.421875 L 0 0 L 33.515625 -49.359375 L 38.78125 -48.171875 L 47.8125 10.765625 Z M 37.78125 -15.453125 L 35.28125 -33.578125 C 34.945312 -35.878906 34.691406 -38.660156 34.515625 -41.921875 C 33.441406 -39.691406 32.085938 -37.273438 30.453125 -34.671875 L 20.328125 -19.375 Z M 37.78125 -15.453125 "/></g></g></g><g fill="#000000" fill-opacity="1"><g transform="translate(664.017289, 1226.035004)"><g><path d="M 15.953125 -21.71875 L 13.984375 1.203125 L 7.578125 0.65625 L 12.3125 -54.4375 L 27.421875 -53.140625 C 34.171875 -52.566406 39.046875 -50.847656 42.046875 -47.984375 C 45.054688 -45.117188 46.335938 -41.085938 45.890625 -35.890625 C 45.265625 -28.597656 41.15625 -23.984375 33.5625 -22.046875 L 46.390625 3.984375 L 38.8125 3.328125 L 27.4375 -20.734375 Z M 16.421875 -27.203125 L 25.203125 -26.453125 C 29.722656 -26.066406 33.113281 -26.679688 35.375 -28.296875 C 37.644531 -29.910156 38.929688 -32.515625 39.234375 -36.109375 C 39.546875 -39.742188 38.695312 -42.457031 36.6875 -44.25 C 34.675781 -46.039062 31.300781 -47.144531 26.5625 -47.5625 L 18.234375 -48.265625 Z M 16.421875 -27.203125 "/></g></g></g><g fill="#000000" fill-opacity="1"><g transform="translate(731.87092, 1231.193079)"><g><path d="M 55.703125 -4.140625 L 49.359375 -3.671875 L 35.484375 -39.765625 C 34.835938 -41.359375 34.097656 -43.375 33.265625 -45.8125 C 32.429688 -48.257812 31.976562 -49.738281 31.90625 -50.25 C 31.601562 -46.875 30.992188 -43.164062 30.078125 -39.125 L 22.03125 -1.640625 L 15.6875 -1.171875 L -3.09375 -55.21875 L 3.703125 -55.71875 L 14.953125 -22.3125 C 16.515625 -17.625 17.71875 -13.363281 18.5625 -9.53125 C 18.894531 -14.175781 19.5625 -18.753906 20.5625 -23.265625 L 27.9375 -57.53125 L 34.734375 -58.03125 L 47.640625 -24.96875 C 49.128906 -21.15625 50.472656 -16.832031 51.671875 -12 C 51.890625 -15.601562 52.46875 -20.019531 53.40625 -25.25 L 59.5625 -59.875 L 66.34375 -60.375 Z M 55.703125 -4.140625 "/></g></g></g><g fill="#000000" fill-opacity="1"><g transform="translate(822.979187, 1221.75861)"><g><path d="M 37.421875 -8.71875 L 7.40625 -1.734375 L -5.140625 -55.59375 L 24.875 -62.578125 L 26.171875 -57 L 2.421875 -51.46875 L 6.453125 -34.125 L 28.765625 -39.328125 L 30.0625 -33.796875 L 7.75 -28.59375 L 12.359375 -8.78125 L 36.109375 -14.3125 Z M 37.421875 -8.71875 "/></g></g></g><g fill="#000000" fill-opacity="1"><g transform="translate(883.427081, 1206.575921)"><g><path d="M 39.65625 -14.90625 L 27.015625 -28.9375 L 6.265625 -21.140625 L 6.078125 -2.28125 L 0 0 L 0.90625 -59.65625 L 5.96875 -61.5625 L 45.875 -17.25 Z M 23.09375 -33.65625 L 11.0625 -47.421875 C 9.519531 -49.160156 7.78125 -51.347656 5.84375 -53.984375 C 6.175781 -51.535156 6.375 -48.769531 6.4375 -45.6875 L 6.34375 -27.359375 Z M 23.09375 -33.65625 "/></g></g></g><g fill="#000000" fill-opacity="1"><g transform="translate(946.893317, 1181.222273)"><g><path d="M 8.3125 -67.265625 L 14.390625 -70.546875 L 23.046875 -12.40625 L 17.453125 -9.390625 L -26.203125 -48.703125 L -20.203125 -51.9375 L 7.9375 -26.4375 C 11.164062 -23.5 14.082031 -20.523438 16.6875 -17.515625 C 15.550781 -21.554688 14.664062 -25.703125 14.03125 -29.953125 Z M 8.3125 -67.265625 "/></g></g></g><g fill="#000000" fill-opacity="1"><g transform="translate(1003.716658, 1149.158146)"><g><path d="M 31.25 -22.359375 L 6.1875 -4.421875 L -25.984375 -49.390625 L -0.921875 -67.328125 L 2.40625 -62.671875 L -17.4375 -48.484375 L -7.078125 -34 L 11.5625 -47.328125 L 14.859375 -42.71875 L -3.78125 -29.390625 L 8.0625 -12.84375 L 27.90625 -27.03125 Z M 31.25 -22.359375 "/></g></g></g><g fill="#000000" fill-opacity="1"><g transform="translate(581.269782, 841.901977)"><g><path d="M 198.421875 0 L 181.390625 -34.046875 L 179.578125 -34.046875 C 167.617188 -19.222656 155.429688 -9.082031 143.015625 -3.625 C 130.609375 1.820312 114.566406 4.546875 94.890625 4.546875 C 70.679688 4.546875 51.613281 -2.71875 37.6875 -17.25 C 23.757812 -31.78125 16.796875 -52.210938 16.796875 -78.546875 C 16.796875 -105.941406 26.332031 -126.335938 45.40625 -139.734375 C 64.476562 -153.128906 92.097656 -160.660156 128.265625 -162.328125 L 171.171875 -163.6875 L 171.171875 -167.3125 C 171.171875 -188.507812 160.726562 -199.109375 139.84375 -199.109375 C 121.082031 -199.109375 97.242188 -192.75 68.328125 -180.03125 L 42.6875 -238.609375 C 72.644531 -254.046875 110.476562 -261.765625 156.1875 -261.765625 C 189.1875 -261.765625 214.726562 -253.585938 232.8125 -237.234375 C 250.90625 -220.890625 259.953125 -198.039062 259.953125 -168.6875 L 259.953125 0 Z M 132.578125 -58.125 C 143.328125 -58.125 152.523438 -61.523438 160.171875 -68.328125 C 167.816406 -75.140625 171.640625 -83.992188 171.640625 -94.890625 L 171.640625 -114.875 L 151.203125 -113.96875 C 121.992188 -112.90625 107.390625 -102.160156 107.390625 -81.734375 C 107.390625 -65.992188 115.785156 -58.125 132.578125 -58.125 Z M 132.578125 -58.125 "/></g></g></g></svg>